# Blender v2.79 (sub 0) OBJ File: ''
# www.blender.org
o Cylinder_Cylinder.001
v 0.690336 0.006051 -0.708374
v 0.690336 0.431151 -0.708374
v 0.731803 0.006051 -0.704290
v 0.731803 0.431151 -0.704290
v 0.771676 0.006051 -0.692195
v 0.771676 0.431151 -0.692195
v 0.808423 0.006051 -0.672553
v 0.808423 0.431151 -0.672553
v 0.840632 0.006051 -0.646120
v 0.840632 0.431151 -0.646120
v 0.867065 0.006051 -0.613911
v 0.867065 0.431151 -0.613911
v 0.886707 0.006051 -0.577164
v 0.886707 0.431151 -0.577164
v 0.898802 0.006051 -0.537291
v 0.898802 0.431151 -0.537291
v 0.902886 0.006051 -0.495825
v 0.902886 0.431151 -0.495825
v 0.898802 0.006051 -0.454358
v 0.898802 0.431151 -0.454358
v 0.886707 0.006051 -0.414486
v 0.886707 0.431151 -0.414486
v 0.867065 0.006051 -0.377739
v 0.867065 0.431151 -0.377739
v 0.840632 0.006051 -0.345529
v 0.840632 0.431151 -0.345529
v 0.808423 0.006051 -0.319096
v 0.808423 0.431151 -0.319096
v 0.771676 0.006051 -0.299454
v 0.771676 0.431151 -0.299454
v 0.731803 0.006051 -0.287359
v 0.731803 0.431151 -0.287359
v 0.690336 0.006051 -0.283275
v 0.690336 0.431151 -0.283275
v 0.648870 0.006051 -0.287359
v 0.648870 0.431151 -0.287359
v 0.608997 0.006051 -0.299455
v 0.608997 0.431151 -0.299455
v 0.572250 0.006051 -0.319096
v 0.572250 0.431151 -0.319096
v 0.540041 0.006051 -0.345530
v 0.540041 0.431151 -0.345530
v 0.513608 0.006051 -0.377739
v 0.513608 0.431151 -0.377739
v 0.493966 0.006051 -0.414486
v 0.493966 0.431151 -0.414486
v 0.481871 0.006051 -0.454359
v 0.481871 0.431151 -0.454359
v 0.477787 0.006051 -0.495825
v 0.477787 0.431151 -0.495825
v 0.481871 0.006051 -0.537291
v 0.481871 0.431151 -0.537291
v 0.493966 0.006051 -0.577164
v 0.493966 0.431151 -0.577164
v 0.513608 0.006051 -0.613911
v 0.513608 0.431151 -0.613911
v 0.540041 0.006051 -0.646120
v 0.540041 0.431151 -0.646120
v 0.572250 0.006051 -0.672554
v 0.572250 0.431151 -0.672554
v 0.608997 0.006051 -0.692195
v 0.608997 0.431151 -0.692195
v 0.648870 0.006051 -0.704290
v 0.648870 0.431151 -0.704290
vt 0.338486 0.347455
vt 0.446742 0.677838
vt 0.380096 0.691053
vt 0.339013 0.348937
vt 0.509574 0.651893
vt 0.339812 0.350285
vt 0.566189 0.614186
vt 0.340853 0.351450
vt 0.614403 0.566137
vt 0.342095 0.352390
vt 0.652349 0.509574
vt 0.343491 0.353071
vt 0.678549 0.446659
vt 0.344987 0.353470
vt 0.691975 0.379807
vt 0.346527 0.353574
vt 0.692094 0.311594
vt 0.348056 0.353382
vt 0.678677 0.244719
vt 0.349510 0.352880
vt 0.652487 0.181785
vt 0.350830 0.352088
vt 0.614560 0.125210
vt 0.351981 0.351043
vt 0.566355 0.077130
vt 0.352905 0.349786
vt 0.509725 0.039374
vt 0.353564 0.348369
vt 0.446841 0.013379
vt 0.353932 0.346847
vt 0.380115 0.000131
vt 0.353998 0.345280
vt 0.312091 0.000131
vt 0.353759 0.343728
vt 0.245371 0.013378
vt 0.353223 0.342252
vt 0.182506 0.039367
vt 0.352415 0.340906
vt 0.125896 0.077111
vt 0.351364 0.339741
vt 0.077712 0.125175
vt 0.350112 0.338801
vt 0.039809 0.181723
vt 0.348713 0.338116
vt 0.013641 0.244616
vt 0.347219 0.337715
vt 0.000235 0.311456
vt 0.345680 0.337607
vt 0.000131 0.379665
vt 0.344151 0.337795
vt 0.013566 0.446543
vt 0.342695 0.338295
vt 0.039783 0.509487
vt 0.341371 0.339083
vt 0.077752 0.566077
vt 0.340230 0.340126
vt 0.125992 0.614147
vt 0.339317 0.341382
vt 0.182636 0.651873
vt 0.338668 0.342800
vt 0.245497 0.677831
vt 0.314877 0.890594
vt 0.418224 0.697243
vt 0.611575 0.800592
vt 0.338310 0.344325
vt 0.312159 0.691051
vt 0.338248 0.345898
vt 0.302758 0.800591
vt 0.199410 0.993940
vt 0.006060 0.890592
vt 0.508227 0.993940
vt 0.478421 0.999869
vt 0.448031 0.999869
vt 0.418225 0.993940
vt 0.390148 0.982310
vt 0.364880 0.965427
vt 0.343391 0.943938
vt 0.326507 0.918670
vt 0.308948 0.860788
vt 0.308948 0.830398
vt 0.314877 0.800591
vt 0.326507 0.772514
vt 0.343390 0.747246
vt 0.364879 0.725757
vt 0.390148 0.708873
vt 0.448031 0.691314
vt 0.478421 0.691314
vt 0.508227 0.697243
vt 0.536304 0.708873
vt 0.561572 0.725757
vt 0.583062 0.747246
vt 0.599945 0.772515
vt 0.617504 0.830398
vt 0.617504 0.860788
vt 0.611575 0.890593
vt 0.599945 0.918670
vt 0.583061 0.943938
vt 0.561572 0.965427
vt 0.536304 0.982311
vt 0.109408 0.697243
vt 0.139214 0.691314
vt 0.169604 0.691315
vt 0.199410 0.697243
vt 0.227487 0.708873
vt 0.252755 0.725757
vt 0.274244 0.747246
vt 0.291128 0.772514
vt 0.308686 0.830397
vt 0.308686 0.860786
vt 0.302758 0.890593
vt 0.291128 0.918669
vt 0.274244 0.943938
vt 0.252755 0.965427
vt 0.227486 0.982311
vt 0.169603 0.999869
vt 0.139213 0.999869
vt 0.109407 0.993940
vt 0.081330 0.982310
vt 0.056062 0.965426
vt 0.034573 0.943937
vt 0.017689 0.918669
vt 0.000131 0.860786
vt 0.000131 0.830396
vt 0.006060 0.800590
vt 0.017690 0.772514
vt 0.034574 0.747245
vt 0.056063 0.725756
vt 0.081331 0.708873
vn 0.0980 0.0000 -0.9952
vn 0.2903 0.0000 -0.9569
vn 0.4714 0.0000 -0.8819
vn 0.6344 0.0000 -0.7730
vn 0.7730 0.0000 -0.6344
vn 0.8819 0.0000 -0.4714
vn 0.9569 0.0000 -0.2903
vn 0.9952 0.0000 -0.0980
vn 0.9952 0.0000 0.0980
vn 0.9569 0.0000 0.2903
vn 0.8819 0.0000 0.4714
vn 0.7730 0.0000 0.6344
vn 0.6344 0.0000 0.7730
vn 0.4714 0.0000 0.8819
vn 0.2903 0.0000 0.9569
vn 0.0980 0.0000 0.9952
vn -0.0980 0.0000 0.9952
vn -0.2903 0.0000 0.9569
vn -0.4714 0.0000 0.8819
vn -0.6344 0.0000 0.7730
vn -0.7730 0.0000 0.6344
vn -0.8819 0.0000 0.4714
vn -0.9569 0.0000 0.2903
vn -0.9952 0.0000 0.0980
vn -0.9952 0.0000 -0.0980
vn -0.9569 0.0000 -0.2903
vn -0.8819 0.0000 -0.4714
vn -0.7730 0.0000 -0.6344
vn -0.6344 0.0000 -0.7730
vn -0.4714 0.0000 -0.8819
vn 0.0000 1.0000 0.0000
vn -0.2903 0.0000 -0.9569
vn -0.0980 0.0000 -0.9952
vn 0.0000 -1.0000 0.0000
s off
f 2/1/1 3/2/1 1/3/1
f 4/4/2 5/5/2 3/2/2
f 6/6/3 7/7/3 5/5/3
f 8/8/4 9/9/4 7/7/4
f 10/10/5 11/11/5 9/9/5
f 12/12/6 13/13/6 11/11/6
f 14/14/7 15/15/7 13/13/7
f 16/16/8 17/17/8 15/15/8
f 18/18/9 19/19/9 17/17/9
f 20/20/10 21/21/10 19/19/10
f 22/22/11 23/23/11 21/21/11
f 24/24/12 25/25/12 23/23/12
f 26/26/13 27/27/13 25/25/13
f 28/28/14 29/29/14 27/27/14
f 30/30/15 31/31/15 29/29/15
f 32/32/16 33/33/16 31/31/16
f 34/34/17 35/35/17 33/33/17
f 36/36/18 37/37/18 35/35/18
f 38/38/19 39/39/19 37/37/19
f 40/40/20 41/41/20 39/39/20
f 42/42/21 43/43/21 41/41/21
f 44/44/22 45/45/22 43/43/22
f 46/46/23 47/47/23 45/45/23
f 48/48/24 49/49/24 47/47/24
f 50/50/25 51/51/25 49/49/25
f 52/52/26 53/53/26 51/51/26
f 54/54/27 55/55/27 53/53/27
f 56/56/28 57/57/28 55/55/28
f 58/58/29 59/59/29 57/57/29
f 60/60/30 61/61/30 59/59/30
f 54/62/31 38/63/31 22/64/31
f 62/65/32 63/66/32 61/61/32
f 64/67/33 1/3/33 63/66/33
f 15/68/34 31/69/34 47/70/34
f 2/1/1 4/4/1 3/2/1
f 4/4/2 6/6/2 5/5/2
f 6/6/3 8/8/3 7/7/3
f 8/8/4 10/10/4 9/9/4
f 10/10/5 12/12/5 11/11/5
f 12/12/6 14/14/6 13/13/6
f 14/14/7 16/16/7 15/15/7
f 16/16/8 18/18/8 17/17/8
f 18/18/9 20/20/9 19/19/9
f 20/20/10 22/22/10 21/21/10
f 22/22/11 24/24/11 23/23/11
f 24/24/12 26/26/12 25/25/12
f 26/26/13 28/28/13 27/27/13
f 28/28/14 30/30/14 29/29/14
f 30/30/15 32/32/15 31/31/15
f 32/32/16 34/34/16 33/33/16
f 34/34/17 36/36/17 35/35/17
f 36/36/18 38/38/18 37/37/18
f 38/38/19 40/40/19 39/39/19
f 40/40/20 42/42/20 41/41/20
f 42/42/21 44/44/21 43/43/21
f 44/44/22 46/46/22 45/45/22
f 46/46/23 48/48/23 47/47/23
f 48/48/24 50/50/24 49/49/24
f 50/50/25 52/52/25 51/51/25
f 52/52/26 54/54/26 53/53/26
f 54/54/27 56/56/27 55/55/27
f 56/56/28 58/58/28 57/57/28
f 58/58/29 60/60/29 59/59/29
f 60/60/30 62/65/30 61/61/30
f 6/71/31 4/72/31 2/73/31
f 2/73/31 64/74/31 6/71/31
f 64/74/31 62/75/31 6/71/31
f 62/75/31 60/76/31 58/77/31
f 58/77/31 56/78/31 54/62/31
f 54/62/31 52/79/31 50/80/31
f 50/80/31 48/81/31 54/62/31
f 48/81/31 46/82/31 54/62/31
f 46/82/31 44/83/31 38/63/31
f 44/83/31 42/84/31 38/63/31
f 42/84/31 40/85/31 38/63/31
f 38/63/31 36/86/31 34/87/31
f 34/87/31 32/88/31 30/89/31
f 30/89/31 28/90/31 26/91/31
f 26/91/31 24/92/31 22/64/31
f 22/64/31 20/93/31 18/94/31
f 18/94/31 16/95/31 22/64/31
f 16/95/31 14/96/31 22/64/31
f 14/96/31 12/97/31 10/98/31
f 10/98/31 8/99/31 6/71/31
f 62/75/31 58/77/31 6/71/31
f 58/77/31 54/62/31 6/71/31
f 38/63/31 34/87/31 22/64/31
f 34/87/31 30/89/31 22/64/31
f 30/89/31 26/91/31 22/64/31
f 14/96/31 10/98/31 22/64/31
f 10/98/31 6/71/31 22/64/31
f 54/62/31 46/82/31 38/63/31
f 6/71/31 54/62/31 22/64/31
f 62/65/32 64/67/32 63/66/32
f 64/67/33 2/1/33 1/3/33
f 63/100/34 1/101/34 3/102/34
f 3/102/34 5/103/34 7/104/34
f 7/104/34 9/105/34 11/106/34
f 11/106/34 13/107/34 7/104/34
f 13/107/34 15/68/34 7/104/34
f 15/68/34 17/108/34 19/109/34
f 19/109/34 21/110/34 15/68/34
f 21/110/34 23/111/34 15/68/34
f 23/111/34 25/112/34 31/69/34
f 25/112/34 27/113/34 31/69/34
f 27/113/34 29/114/34 31/69/34
f 31/69/34 33/115/34 35/116/34
f 35/116/34 37/117/34 39/118/34
f 39/118/34 41/119/34 43/120/34
f 43/120/34 45/121/34 47/70/34
f 47/70/34 49/122/34 51/123/34
f 51/123/34 53/124/34 55/125/34
f 55/125/34 57/126/34 63/100/34
f 57/126/34 59/127/34 63/100/34
f 59/127/34 61/128/34 63/100/34
f 63/100/34 3/102/34 7/104/34
f 31/69/34 35/116/34 47/70/34
f 35/116/34 39/118/34 47/70/34
f 39/118/34 43/120/34 47/70/34
f 47/70/34 51/123/34 63/100/34
f 51/123/34 55/125/34 63/100/34
f 63/100/34 7/104/34 15/68/34
f 15/68/34 23/111/34 31/69/34
f 63/100/34 15/68/34 47/70/34
